<?xml version="1.0" encoding="UTF-8"?>
<!-- Created with Inkscape (http://www.inkscape.org/) -->
<svg width="48" height="48" version="1.1" viewBox="0 0 12.7 12.7" xmlns="http://www.w3.org/2000/svg">
 <path d="m1.0589 0a1.0584 1.0584 0 0 0-1.0589 1.0589v2.6464c0 1.0387 0.4381 1.9808 1.1358 2.6557-0.69802 0.67197-1.1358 1.6121-1.1358 2.6489v2.6329a1.0584 1.0584 0 0 0 1.0589 1.0563h2.6308c1.0369 0 1.9769-0.43792 2.6489-1.1358 0.67547 0.69799 1.6184 1.1358 2.6577 1.1358h2.6463a1.0584 1.0584 0 0 0 1.0563-1.0563v-2.6463c1e-6 -1.1879-0.5723-2.2496-1.4516-2.9295 0.87313-0.60183 1.4516-1.6053 1.4516-2.7368 0-1.8263-1.5017-3.33-3.328-3.33-1.1314 0-2.1359 0.57904-2.7383 1.4526-0.67987-0.87989-1.7415-1.4526-2.9295-1.4526h-2.6443zm-5.168e-4 1.0583h2.6448c1.0773 0 2.0028 0.6442 2.4159 1.5679 0.035842 0.080131 0.067589 0.16249 0.095601 0.2465 7.627e-4 0.0022869 0.0018273 0.0044283 0.0025839 0.0067179 1.702e-4 5.188e-4 3.468e-4 0.0010314 5.167e-4 0.0015503 0.028327 0.085902 0.052286 0.17353 0.07183 0.26303 0.016411 0.075154 0.027899 0.15203 0.037724 0.22944 0.0021482 0.017182 0.0059343 0.033877 0.0077514 0.05116 0.0097605 0.091432 0.014951 0.18445 0.014986 0.27854l0.0010335 2.6267v0.01912h-0.11989l-2.5259 0.0010335c-0.083139 3.09e-5 -0.16531-0.0049307-0.2465-0.012402-0.032924-0.0030643-0.065112-0.0081319-0.097668-0.012402-0.047236-0.0061293-0.094138-0.013118-0.14056-0.021704-0.037513-0.0070118-0.074687-0.014667-0.11162-0.023254-0.038966-0.0089715-0.077468-0.019301-0.11576-0.029972-0.042696-0.012012-0.085332-0.024161-0.12712-0.038241-0.025328-0.0084613-0.04995-0.018189-0.074931-0.027388-0.048462-0.017989-0.097096-0.035628-0.14418-0.056327-0.1944-0.085467-0.37675-0.19369-0.54364-0.32091l-0.50178-0.50178c-0.33928-0.44463-0.54312-0.99797-0.54312-1.6004v-2.6469zm8.4749 0.0082683c1.1239 0.079991 2.0201 0.97623 2.1001 2.1001l-2.1001-2.1001zm-0.93069 0.12764 2.9032 2.9032c-0.08919 0.24776-0.21802 0.47667-0.38241 0.67593l-3.1967-3.1967c0.19926-0.16438 0.42817-0.29322 0.67593-0.38241zm-1.1663 0.95033 3.1192 3.1192c-0.13585 0.083375-0.28167 0.15134-0.43408 0.20516-0.1787-0.057706-0.36284-0.10294-0.5519-0.13281l-2.2066-2.2066c-0.029821-0.18827-0.074882-0.37132-0.13229-0.54932 0.053892-0.15297 0.12202-0.29933 0.20567-0.43563zm-0.027388 2.0893 1.0573 1.0573h-1.0557l-0.0015503-1.0573zm-1.0589 2.1161h0.021704 2.6241c0.095844 0 0.19058 0.0054306 0.2837 0.015503 1.692e-4 1.83e-5 3.477e-4 -1.83e-5 5.168e-4 0 0.0028059 3.002e-4 0.005465 0.0012414 0.0082682 0.0015503 0.088815 0.0099154 0.17609 0.023833 0.262 0.042375 0.010476 0.0022353 0.020577 0.0053925 0.031006 0.0077515 0.080128 0.018322 0.15947 0.039205 0.23668 0.064596 6.703e-4 2.205e-4 0.0013969 2.958e-4 0.002067 5.168e-4 0.0028102 9.21e-4 0.0054622 0.0021704 0.0082683 0.0031006 0.082627 0.027555 0.1635 0.058907 0.24236 0.094051 8.44e-4 3.761e-4 0.00174 6.565e-4 0.002584 0.0010335 0.92373 0.4128 1.5684 1.3382 1.5684 2.4154v2.6458h-2.6458c-0.60245 0-1.1562-0.20353-1.6009-0.5426l-0.50074-0.50074c-0.16204-0.21209-0.29205-0.44968-0.38499-0.70487-0.0064135-0.017759-0.013078-0.035293-0.01912-0.053227-0.015646-0.046034-0.029245-0.092907-0.042375-0.14004-0.0092986-0.033706-0.018371-0.067571-0.026355-0.1018-0.0091407-0.038804-0.017407-0.077857-0.024805-0.11731-0.0088498-0.047678-0.015965-0.096155-0.022221-0.14469-0.004054-0.03114-0.008935-0.062057-0.011886-0.093534-0.0075616-0.081497-0.012402-0.16354-0.012402-0.24701v-2.528-0.11782zm-4.3408 0.64027c0.12714 0.066213 0.25873 0.12385 0.39377 0.17518l3.1244 3.1244c0.052224 0.13835 0.11407 0.27146 0.1819 0.40153-0.12692 0.15234-0.26993 0.29042-0.42788 0.41083l-3.6835-3.6835c0.12056-0.15814 0.25878-0.30136 0.41134-0.4284zm1.695 0.41806h0.0010335 1.5859v1.587l-1.587-1.587zm-2.4815 0.6935 3.3755 3.3755c-0.27934 0.10297-0.57981 0.16216-0.89452 0.16381l-2.6448-2.6448c0.00165-0.31471 0.060846-0.61518 0.16381-0.89452zm-0.16433 1.9523 1.5875 1.5875h-1.5875v-1.5875z" style="paint-order:stroke fill markers"/>
</svg>
