<?xml version="1.0" encoding="UTF-8" standalone="no"?>
<!-- Created with Inkscape (http://www.inkscape.org/) -->

<svg
   width="48"
   height="48"
   viewBox="0 0 12.7 12.7"
   version="1.1"
   id="svg1"
   inkscape:version="1.3.2 (091e20ef0f, 2023-11-25, custom)"
   sodipodi:docname="ccn_icon_bw.svg"
   inkscape:export-filename="ccn_icon.png"
   inkscape:export-xdpi="1024"
   inkscape:export-ydpi="1024"
   xmlns:inkscape="http://www.inkscape.org/namespaces/inkscape"
   xmlns:sodipodi="http://sodipodi.sourceforge.net/DTD/sodipodi-0.dtd"
   xmlns="http://www.w3.org/2000/svg"
   xmlns:svg="http://www.w3.org/2000/svg">
  <sodipodi:namedview
     id="namedview1"
     pagecolor="#ffffff"
     bordercolor="#000000"
     borderopacity="0.25"
     inkscape:showpageshadow="2"
     inkscape:pageopacity="0.0"
     inkscape:pagecheckerboard="0"
     inkscape:deskcolor="#d1d1d1"
     inkscape:document-units="mm"
     showgrid="false"
     inkscape:zoom="7.9999996"
     inkscape:cx="28.125001"
     inkscape:cy="43.375002"
     inkscape:window-width="2560"
     inkscape:window-height="1368"
     inkscape:window-x="1920"
     inkscape:window-y="0"
     inkscape:window-maximized="1"
     inkscape:current-layer="layer2">
    <inkscape:grid
       id="grid1"
       units="px"
       originx="0"
       originy="0"
       spacingx="0.26458333"
       spacingy="0.26458333"
       empcolor="#0099e5"
       empopacity="0.30196078"
       color="#0099e5"
       opacity="0.14901961"
       empspacing="4"
       dotted="false"
       gridanglex="30"
       gridanglez="30"
       visible="false" />
  </sodipodi:namedview>
  <defs
     id="defs1">
    <inkscape:path-effect
       effect="fillet_chamfer"
       id="path-effect77"
       is_visible="true"
       lpeversion="1"
       nodesatellites_param="F,0,0,1,0,0,0,1 @ F,0,0,1,0,0,0,1 @ F,0,0,1,0,0,0,1 @ F,0,0,1,0,0,0,1"
       radius="0"
       unit="px"
       method="auto"
       mode="F"
       chamfer_steps="1"
       flexible="false"
       use_knot_distance="true"
       apply_no_radius="true"
       apply_with_radius="true"
       only_selected="false"
       hide_knots="false" />
    <inkscape:path-effect
       effect="fillet_chamfer"
       id="path-effect76"
       is_visible="true"
       lpeversion="1"
       nodesatellites_param="F,0,0,1,0,0,0,1 @ F,0,0,1,0,0,0,1 @ F,0,0,1,0,0,0,1 @ F,0,0,1,0,0,0,1"
       radius="0"
       unit="px"
       method="auto"
       mode="F"
       chamfer_steps="1"
       flexible="false"
       use_knot_distance="true"
       apply_no_radius="true"
       apply_with_radius="true"
       only_selected="false"
       hide_knots="false" />
    <inkscape:path-effect
       effect="fillet_chamfer"
       id="path-effect75"
       is_visible="true"
       lpeversion="1"
       nodesatellites_param="F,0,0,1,0,0,0,1 @ F,0,0,1,0,0,0,1 @ F,0,0,1,0,0,0,1 @ F,0,0,1,0,0,0,1"
       radius="0"
       unit="px"
       method="auto"
       mode="F"
       chamfer_steps="1"
       flexible="false"
       use_knot_distance="true"
       apply_no_radius="true"
       apply_with_radius="true"
       only_selected="false"
       hide_knots="false" />
    <inkscape:path-effect
       effect="fillet_chamfer"
       id="path-effect74"
       is_visible="true"
       lpeversion="1"
       nodesatellites_param="F,0,0,1,0,0,0,1 @ F,0,0,1,0,0,0,1 @ F,0,0,1,0,0,0,1 @ F,0,0,1,0,0,0,1"
       radius="0"
       unit="px"
       method="auto"
       mode="F"
       chamfer_steps="1"
       flexible="false"
       use_knot_distance="true"
       apply_no_radius="true"
       apply_with_radius="true"
       only_selected="false"
       hide_knots="false" />
    <inkscape:path-effect
       effect="fillet_chamfer"
       id="path-effect73"
       is_visible="true"
       lpeversion="1"
       nodesatellites_param="F,0,0,1,0,0,0,1 @ F,0,0,1,0,0,0,1 @ F,0,0,1,0,0,0,1 @ F,0,0,1,0,0,0,1"
       radius="0"
       unit="px"
       method="auto"
       mode="F"
       chamfer_steps="1"
       flexible="false"
       use_knot_distance="true"
       apply_no_radius="true"
       apply_with_radius="true"
       only_selected="false"
       hide_knots="false" />
    <inkscape:path-effect
       effect="fillet_chamfer"
       id="path-effect72"
       is_visible="true"
       lpeversion="1"
       nodesatellites_param="F,0,0,1,0,0,0,1 @ F,0,0,1,0,0,0,1 @ F,0,0,1,0,0,0,1 @ F,0,0,1,0,0,0,1"
       radius="0"
       unit="px"
       method="auto"
       mode="F"
       chamfer_steps="1"
       flexible="false"
       use_knot_distance="true"
       apply_no_radius="true"
       apply_with_radius="true"
       only_selected="false"
       hide_knots="false" />
  </defs>
  <g
     inkscape:label="v1"
     inkscape:groupmode="layer"
     id="layer1"
     style="display:none">
    <path
       style="fill:none;fill-opacity:1;stroke:#ec6c97;stroke-width:2.11666;stroke-linecap:square;stroke-linejoin:round;stroke-dasharray:none;stroke-opacity:1"
       d="m 6.3499996,1.05833 c -2.8863653,0 -5.2916696,2.4053043 -5.2916696,5.2916696 0,2.8863652 2.4053043,5.2916694 5.2916696,5.2916694 2.8863652,0 5.2916694,-2.4053042 5.2916694,-5.2916694"
       id="path2"
       sodipodi:nodetypes="cccc" />
    <path
       style="fill:none;fill-opacity:1;stroke:#4ecfe9;stroke-width:2.11667;stroke-linecap:square;stroke-linejoin:round;stroke-dasharray:none;stroke-opacity:1"
       d="m 6.3499993,8.4666688 c 1.154547,0 2.1166695,-0.9621225 2.1166695,-2.1166695 0,-1.1545469 -0.9621225,-2.1166694 -2.1166695,-2.1166694 -1.1545469,0 -2.1166694,0.9621225 -2.1166694,2.1166694"
       id="path3"
       sodipodi:nodetypes="cccc" />
    <path
       id="path4"
       style="fill:#6119c7;fill-opacity:1;stroke-width:2.11667;stroke-linecap:round;stroke-linejoin:round"
       d="m 11.906249,2.3812499 c 0,0.876752 -0.710748,1.5875 -1.5875,1.5874999 -0.8767518,-3e-7 -1.5874994,-0.7107481 -1.5874994,-1.5874999 0,-0.8767518 0.7107476,-1.5874998 1.5874994,-1.58749985 l 1.5875,-9e-8 z"
       sodipodi:nodetypes="sssscs" />
  </g>
  <g
     inkscape:groupmode="layer"
     id="layer2"
     inkscape:label="v2"
     style="display:inline">
    <path
       id="path81"
       style="display:none;fill:#000000;fill-opacity:1;stroke-width:2.64583;stroke-linejoin:round;paint-order:stroke fill markers"
       d="M 0,0 H 12.7 V 12.7 H 0 Z" />
    <path
       id="rect77"
       style="display:inline;fill:#000000;stroke-width:2.64583;stroke-linejoin:round;paint-order:stroke fill markers;fill-opacity:1"
       d="M 1.0583333,6.8791663 7.4083329,1.0583333 H 11.641666 V 5.2916664 L 5.820833,11.641666 H 1.0583334 Z"
       sodipodi:nodetypes="ccccccc" />
    <path
       id="path60"
       style="display:inline;fill:#ffffff;fill-opacity:1;stroke:none;stroke-width:2.64584;stroke-linejoin:round;stroke-dasharray:none;stroke-dashoffset:0;stroke-opacity:1;paint-order:stroke fill markers"
       d="M 9.5249995,1.0583333 H 8.4666662 L 11.641666,4.2333331 V 3.1749998 Z m -2.1166666,0 v 1.0583333 l 3.1750001,3.1749998 h 1.058333 z M 6.35,2.1166667 V 3.175 L 9.525,6.35 h 1.058333 z M 1.0583333,4.7625 V 5.8208333 L 6.8791667,11.641667 H 7.9375 Z m 0,2.1166667 V 7.9375 L 4.7625,11.641667 h 1.0583333 z m 0,2.1166666 v 1.0583337 l 1.5875,1.5875 h 1.0583334 z"
       sodipodi:nodetypes="cccccccccccccccccccccccccccccc" />
    <path
       id="path51"
       style="display:inline;mix-blend-mode:screen;fill:#000000;fill-opacity:1;stroke:#ffffff;stroke-width:2.11667;stroke-linecap:round;stroke-linejoin:round;stroke-dasharray:none;stroke-dashoffset:0;stroke-opacity:1;paint-order:stroke fill markers"
       d="m 7.0996503,3.3293416 c 0,-1.2542409 1.0167641,-2.2710044 2.271006,-2.2710044 1.2542427,0 2.2710067,1.0167635 2.2710067,2.2710044 0,1.2542408 -1.016764,2.2710043 -2.2710067,2.2710043 l -2.271006,2e-7 z"
       sodipodi:nodetypes="sssscs" />
    <path
       id="path1"
       style="display:inline;mix-blend-mode:screen;fill:#000000;fill-opacity:1;stroke:#ffffff;stroke-width:2.11667;stroke-linecap:butt;stroke-linejoin:miter;stroke-dasharray:none;stroke-dashoffset:0;stroke-opacity:1;paint-order:stroke fill markers"
       d="m 1.0583334,9.0105317 c 0,-1.4531358 1.1779983,-2.6311353 2.6311326,-2.631135 1.4531345,4e-7 2.631133,1.1779994 2.631133,2.631135 0,1.4531373 -1.1779985,2.6311343 -2.631133,2.6311343 H 1.0583334 Z"
       sodipodi:nodetypes="sssscs" />
    <path
       id="path52"
       style="display:none;fill:#8c99a2;fill-opacity:1;stroke:#ffffff;stroke-width:2.11667;stroke-linecap:butt;stroke-linejoin:round;stroke-dasharray:none;stroke-dashoffset:0;stroke-opacity:1;paint-order:stroke fill markers"
       d="M 3.7033052,1.0583333 C 2.9514094,1.0586128 2.2728511,1.372472 1.7913097,1.8762063 1.3370126,2.3514405 1.0580697,2.9956722 1.0583333,3.7050277 1.0588763,5.1662789 2.2437766,6.3505428 3.7050277,6.3499996 L 6.3508609,6.3491413 6.3500026,3.7033082 C 6.3494566,2.2420537 5.1645565,1.0577902 3.7033052,1.0583333 Z m 2.6466944,5.2916663 v 2.6458332 c 0,1.4612522 1.1845816,2.6458332 2.6458332,2.6458332 1.4612522,0 2.6458322,-1.184581 2.6458332,-2.6458332 0,-1.4612517 -1.184581,-2.6458332 -2.6458332,-2.6458332 z"
       sodipodi:nodetypes="ssscccscssssc" />
    <path
       id="path82"
       style="display:inline;fill:#000000;fill-opacity:1;stroke:#ffffff;stroke-width:2.11667;stroke-linecap:butt;stroke-linejoin:round;stroke-dasharray:none;stroke-dashoffset:0;stroke-opacity:1;paint-order:stroke fill markers"
       d="M 3.7033052,1.0583333 H 1.0583333 v 2.6466944 c 0,1.4612513 1.1854433,2.6455151 2.6466944,2.6449719 L 6.3508609,6.3491413 6.3500026,3.7033082 C 6.3494566,2.2420537 5.1645566,1.0583333 3.7033052,1.0583333 Z m 2.6466944,5.2916663 v 2.6458332 c 0,1.4612522 1.1845816,2.6458332 2.6458332,2.6458332 0.8172991,0 2.6458332,0 2.6458332,0 0,0 0,-2.0018801 0,-2.6458332 10e-7,-1.4612517 -1.184581,-2.6458332 -2.6458332,-2.6458332 z"
       sodipodi:nodetypes="scscccscsscssc" />
    <path
       style="display:inline;fill:none;fill-opacity:1;stroke:#000000;stroke-width:0.529167;stroke-linecap:round;stroke-linejoin:round;stroke-dasharray:none;stroke-dashoffset:0;stroke-opacity:1;paint-order:stroke fill markers"
       d="M 9.2604162,1.3229166 C 9.1138749,1.00556 8.9815783,0.66301736 8.7312495,0.52916664"
       id="path83"
       sodipodi:nodetypes="cc" />
    <path
       style="display:inline;fill:none;fill-opacity:1;stroke:#000000;stroke-width:0.529167;stroke-linecap:round;stroke-linejoin:round;stroke-dasharray:none;stroke-dashoffset:0;stroke-opacity:1;paint-order:stroke fill markers"
       d="m 11.377083,3.4395832 c 0.317356,0.146541 0.659899,0.278838 0.793749,0.529167"
       id="path85"
       sodipodi:nodetypes="cc" />
  </g>
</svg>
